<svg width="392" height="402" viewBox="0 0 392 402" fill="none" xmlns="http://www.w3.org/2000/svg">
<path d="M190.942 0.840322C290.942 10.8403 380.942 70.8403 390.942 200.84C400.942 330.84 320.942 390.84 190.942 400.84C60.9424 410.84 -9.05756 330.84 0.942441 200.84C10.9424 70.8403 90.9424 -9.15968 190.942 0.840322Z" fill="#E1BEB2"/>
<path d="M153.261 304C164.108 304 173.577 302.102 181.669 298.307C189.761 294.683 196.045 289.335 200.522 282.261C205.17 275.36 207.495 267.079 207.495 257.417C207.495 247.755 204.998 239.129 200.005 231.538C195.184 223.946 188.384 217.477 179.603 212.128C170.994 206.952 160.922 202.898 149.387 199.965V162.181H144.222V202.294C155.757 206.607 164.366 211.352 170.047 216.528C175.729 221.704 179.517 227.311 181.411 233.349C183.477 239.388 184.51 245.771 184.51 252.5C184.51 268.89 181.152 280.709 174.438 287.955C167.723 295.201 159.029 298.824 148.354 298.824C144.222 298.824 139.659 298.22 134.666 297.013C129.846 295.805 125.972 293.303 123.045 289.508C126.316 288.817 128.899 287.351 130.793 285.108C132.859 282.865 133.892 279.932 133.892 276.309C133.892 271.996 132.514 268.545 129.76 265.957C127.005 263.542 123.647 262.334 119.688 262.334C115.728 262.334 112.456 263.628 109.874 266.216C107.291 268.804 106 272.082 106 276.05C106 279.673 107.119 283.038 109.357 286.143C111.596 289.421 114.522 292.268 118.138 294.683C121.754 297.099 126.402 299.255 132.084 301.153C137.938 303.051 144.997 304 153.261 304ZM147.063 131.126C151.539 131.126 155.413 129.487 158.684 126.209C161.955 122.93 163.591 119.049 163.591 114.563C163.591 110.077 161.955 106.195 158.684 102.917C155.413 99.639 151.539 98 147.063 98C142.586 98 138.712 99.639 135.441 102.917C132.17 106.195 130.534 110.077 130.534 114.563C130.534 119.049 132.17 122.93 135.441 126.209C138.712 129.487 142.586 131.126 147.063 131.126Z" fill="url(#paint0_linear_2020_702)"/>
<path d="M249.554 138.113C241.419 138.113 234.317 139.536 228.248 142.383C222.179 145.1 217.466 149.112 214.109 154.417C210.622 159.593 208.879 165.804 208.879 173.05C208.879 180.296 210.751 186.766 214.496 192.46C218.112 198.153 223.212 203.006 229.798 207.017C236.254 210.899 243.808 213.94 252.46 216.139V244.477H256.334V214.393C247.682 211.158 241.226 207.599 236.964 203.717C232.703 199.835 229.862 195.63 228.442 191.101C226.892 186.572 226.118 181.785 226.118 176.738C226.118 164.445 228.636 155.582 233.672 150.147C238.708 144.712 245.229 141.995 253.235 141.995C256.334 141.995 259.755 142.448 263.5 143.354C267.116 144.259 270.021 146.136 272.216 148.982C269.763 149.5 267.826 150.6 266.406 152.282C264.856 153.964 264.081 156.164 264.081 158.881C264.081 162.116 265.114 164.704 267.18 166.645C269.246 168.457 271.764 169.362 274.734 169.362C277.704 169.362 280.158 168.392 282.095 166.451C284.032 164.51 285 162.051 285 159.075C285 156.358 284.161 153.835 282.482 151.506C280.803 149.047 278.608 146.912 275.896 145.1C273.185 143.289 269.698 141.671 265.437 140.248C261.047 138.825 255.753 138.113 249.554 138.113ZM254.203 267.769C250.846 267.769 247.94 268.998 245.487 271.457C243.033 273.915 241.807 276.827 241.807 280.191C241.807 283.555 243.033 286.467 245.487 288.925C247.94 291.384 250.846 292.613 254.203 292.613C257.56 292.613 260.466 291.384 262.919 288.925C265.373 286.467 266.599 283.555 266.599 280.191C266.599 276.827 265.373 273.915 262.919 271.457C260.466 268.998 257.56 267.769 254.203 267.769Z" fill="url(#paint1_linear_2020_702)"/>
<defs>
<linearGradient id="paint0_linear_2020_702" x1="351.018" y1="209.023" x2="142.477" y2="209.023" gradientUnits="userSpaceOnUse">
<stop stop-color="#B7245C"/>
<stop offset="1" stop-color="#7C3238"/>
</linearGradient>
<linearGradient id="paint1_linear_2020_702" x1="351.018" y1="209.023" x2="142.477" y2="209.023" gradientUnits="userSpaceOnUse">
<stop stop-color="#B7245C"/>
<stop offset="1" stop-color="#7C3238"/>
</linearGradient>
</defs>
</svg>
