<svg width="500" height="500" viewBox="0 0 500 500" fill="none" xmlns="http://www.w3.org/2000/svg">
<g clip-path="url(#clip0_2020_668)">
<path d="M500 0H0V500H500V0Z" fill="#E6CFBC"/>
<path d="M244.942 50C344.942 60 434.942 120 444.942 250C454.942 380 374.942 440 244.942 450C114.942 460 44.9424 380 54.9424 250C64.9424 120 144.942 40 244.942 50Z" fill="#D5B5AB" fill-opacity="0.2"/>
<path d="M402.902 132.8V135.8C399.502 135.9 396.902 136.3 395.102 137C393.402 137.6 392.252 138.8 391.652 140.6C391.052 142.3 390.752 145 390.752 148.7V223.1C390.752 226.7 391.052 229.4 391.652 231.2C392.252 233 393.402 234.2 395.102 234.8C396.902 235.4 399.502 235.8 402.902 236V239C400.602 238.8 397.702 238.7 394.202 238.7C390.802 238.6 387.352 238.55 383.852 238.55C379.952 238.55 376.302 238.6 372.902 238.7C369.502 238.7 366.752 238.8 364.652 239V236C368.052 235.8 370.602 235.4 372.302 234.8C374.102 234.2 375.302 233 375.902 231.2C376.502 229.4 376.802 226.7 376.802 223.1V140.6L377.402 141.05L340.652 239.75H338.252L300.452 142.4V221.6C300.452 225.2 300.752 228.05 301.352 230.15C302.052 232.15 303.352 233.6 305.252 234.5C307.252 235.3 310.202 235.8 314.102 236V239C312.302 238.8 309.952 238.7 307.052 238.7C304.152 238.6 301.402 238.55 298.802 238.55C296.302 238.55 293.752 238.6 291.152 238.7C288.652 238.7 286.552 238.8 284.852 239V236C288.252 235.8 290.802 235.3 292.502 234.5C294.302 233.6 295.502 232.15 296.102 230.15C296.702 228.05 297.002 225.2 297.002 221.6V148.7C297.002 145 296.702 142.3 296.102 140.6C295.502 138.8 294.302 137.6 292.502 137C290.802 136.3 288.252 135.9 284.852 135.8V132.8C286.552 132.9 288.652 133 291.152 133.1C293.752 133.2 296.302 133.25 298.802 133.25C301.002 133.25 303.252 133.2 305.552 133.1C307.952 133 309.952 132.9 311.552 132.8L345.602 222.5L343.052 223.7L376.802 133.25C378.002 133.25 379.152 133.25 380.252 133.25C381.452 133.25 382.652 133.25 383.852 133.25C387.352 133.25 390.802 133.2 394.202 133.1C397.702 133 400.602 132.9 402.902 132.8ZM165.671 244.7C172.271 244.7 177.671 245.7 181.871 247.7C186.171 249.6 189.971 251.85 193.271 254.45C195.271 255.95 196.771 256.15 197.771 255.05C198.871 253.85 199.621 251.1 200.021 246.8H203.471C203.271 250.5 203.121 255 203.021 260.3C202.921 265.6 202.871 272.6 202.871 281.3H199.421C198.721 277 198.071 273.6 197.471 271.1C196.871 268.5 196.121 266.3 195.221 264.5C194.421 262.7 193.321 260.9 191.921 259.1C188.821 255 184.921 252.05 180.221 250.25C175.521 248.35 170.571 247.4 165.371 247.4C160.471 247.4 156.021 248.65 152.021 251.15C148.121 253.55 144.721 257.05 141.821 261.65C139.021 266.25 136.821 271.8 135.221 278.3C133.721 284.8 132.971 292.1 132.971 300.2C132.971 308.6 133.821 316.05 135.521 322.55C137.221 328.95 139.571 334.35 142.571 338.75C145.671 343.15 149.271 346.5 153.371 348.8C157.571 351 162.071 352.1 166.871 352.1C171.371 352.1 176.071 351.2 180.971 349.4C185.871 347.6 189.721 344.7 192.521 340.7C194.721 337.8 196.221 334.65 197.021 331.25C197.921 327.85 198.721 323.1 199.421 317H202.871C202.871 326.1 202.921 333.45 203.021 339.05C203.121 344.55 203.271 349.2 203.471 353H200.021C199.621 348.7 198.921 346 197.921 344.9C197.021 343.8 195.471 343.95 193.271 345.35C189.571 347.95 185.621 350.25 181.421 352.25C177.321 354.15 172.021 355.1 165.521 355.1C156.021 355.1 147.671 352.95 140.471 348.65C133.371 344.35 127.821 338.15 123.821 330.05C119.921 321.95 117.971 312.2 117.971 300.8C117.971 289.6 120.021 279.8 124.121 271.4C128.221 263 133.821 256.45 140.921 251.75C148.121 247.05 156.371 244.7 165.671 244.7ZM295.793 246.8V249.8L235.943 349.55H265.343C270.043 349.55 273.843 349.05 276.743 348.05C279.743 347.05 282.093 345.5 283.793 343.4C285.593 341.2 286.943 338.3 287.843 334.7C288.743 331.1 289.443 326.7 289.943 321.5H293.393C293.093 324.6 292.943 328.7 292.943 333.8C292.943 335.7 292.993 338.45 293.093 342.05C293.293 345.55 293.593 349.2 293.993 353C290.293 352.8 286.243 352.7 281.843 352.7C277.443 352.6 273.043 352.55 268.643 352.55C264.343 352.55 260.343 352.55 256.643 352.55C250.743 352.55 244.493 352.6 237.893 352.7C231.393 352.7 225.293 352.8 219.593 353V350L279.893 250.25H250.643C245.943 250.25 242.093 250.75 239.093 251.75C236.193 252.75 233.843 254.35 232.043 256.55C230.343 258.65 229.043 261.5 228.143 265.1C227.243 268.7 226.543 273.1 226.043 278.3H222.593C222.793 276.7 222.893 274.85 222.893 272.75C222.993 270.65 223.043 268.4 223.043 266C223.043 264.1 222.943 261.4 222.743 257.9C222.643 254.3 222.393 250.6 221.993 246.8C225.693 246.9 229.743 247 234.143 247.1C238.543 247.2 242.943 247.25 247.343 247.25C251.743 247.25 255.743 247.25 259.343 247.25C265.043 247.25 271.143 247.25 277.643 247.25C284.243 247.15 290.293 247 295.793 246.8ZM390.555 246.8V249.8C388.655 250.2 386.755 251.45 384.855 253.55C382.955 255.55 380.855 258.75 378.555 263.15L348.255 323.15H345.705L310.605 258.35C308.605 254.65 306.905 252.35 305.505 251.45C304.205 250.45 303.005 249.95 301.905 249.95V246.8C303.905 246.9 305.955 247 308.055 247.1C310.255 247.2 312.605 247.25 315.105 247.25C318.405 247.25 321.905 247.25 325.605 247.25C329.405 247.15 332.905 247 336.105 246.8V249.95C333.605 249.95 331.405 250.25 329.505 250.85C327.605 251.45 326.355 252.55 325.755 254.15C325.155 255.75 325.605 258 327.105 260.9L352.455 309.5L351.255 310.4L371.205 270.65C374.005 265.15 375.355 260.9 375.255 257.9C375.255 254.9 374.105 252.85 371.805 251.75C369.505 250.55 366.255 249.9 362.055 249.8V246.8C364.955 246.9 367.905 247 370.905 247.1C373.905 247.2 376.705 247.25 379.305 247.25C381.905 247.25 384.055 247.2 385.755 247.1C387.455 247 389.055 246.9 390.555 246.8ZM355.005 307.4V337.1C355.005 340.7 355.305 343.4 355.905 345.2C356.505 347 357.655 348.2 359.355 348.8C361.155 349.4 363.755 349.8 367.155 350V353C364.855 352.8 361.955 352.7 358.455 352.7C355.055 352.6 351.605 352.55 348.105 352.55C344.205 352.55 340.555 352.6 337.155 352.7C333.755 352.7 331.005 352.8 328.905 353V350C332.305 349.8 334.855 349.4 336.555 348.8C338.355 348.2 339.555 347 340.155 345.2C340.755 343.4 341.055 340.7 341.055 337.1V306.35L349.155 315.65L355.005 307.4Z" fill="url(#paint0_linear_2020_668)"/>
</g>
<defs>
<linearGradient id="paint0_linear_2020_668" x1="89" y1="243" x2="412" y2="243" gradientUnits="userSpaceOnUse">
<stop stop-color="#B7245C"/>
<stop offset="1" stop-color="#7C3238"/>
</linearGradient>
<clipPath id="clip0_2020_668">
<rect width="500" height="500" fill="white"/>
</clipPath>
</defs>
</svg>
